<?xml version="1.0" encoding="UTF-8"?>
<!DOCTYPE svg PUBLIC "-//W3C//DTD SVG 1.1//EN" "http://www.w3.org/Graphics/SVG/1.1/DTD/svg11.dtd">
<!-- Creator: CorelDRAW X7 -->
<svg xmlns="http://www.w3.org/2000/svg" xml:space="preserve" width="600px" height="400px" version="1.1" style="shape-rendering:geometricPrecision; text-rendering:geometricPrecision; image-rendering:optimizeQuality; fill-rule:evenodd; clip-rule:evenodd"
viewBox="0 0 600000 400000"
 xmlns:xlink="http://www.w3.org/1999/xlink">
 <defs>
  <style type="text/css">
   <![CDATA[
    .fil7 {fill:none}
    .fil12 {fill:#B04B87}
    .fil14 {fill:#BFBCBD}
    .fil5 {fill:#C75993}
    .fil8 {fill:#CCCCCC}
    .fil6 {fill:#D787B1}
    .fil10 {fill:#EB6FA5}
    .fil2 {fill:#EB6FA5}
    .fil4 {fill:#F4ADCC}
    .fil11 {fill:#F4C5E1}
    .fil13 {fill:#FDE7EF}
    .fil9 {fill:white}
    .fil3 {fill:white}
    .fil16 {fill:#999999;fill-rule:nonzero}
    .fil15 {fill:#EB6FA5;fill-rule:nonzero}
    .fil1 {fill:white;fill-opacity:0.301961}
    .fil0 {fill:url(#id10)}
   ]]>
  </style>
       <mask id="id0">
  <linearGradient id="id1" gradientUnits="userSpaceOnUse" x1="143380" y1="151336" x2="110023" y2="178746">
   <stop offset="0" style="stop-opacity:1; stop-color:white"/>
   <stop offset="0.388235" style="stop-opacity:0.501961; stop-color:white"/>
   <stop offset="1" style="stop-opacity:0; stop-color:white"/>
  </linearGradient>
        <rect style="fill:url(#id1)" x="138406" y="125517" width="14481" height="37629"/>
       </mask>
       <mask id="id2">
  <linearGradient id="id3" gradientUnits="userSpaceOnUse" x1="146465" y1="68560.7" x2="146465" y2="199850">
   <stop offset="0" style="stop-opacity:1; stop-color:white"/>
   <stop offset="1" style="stop-opacity:0; stop-color:white"/>
  </linearGradient>
        <rect style="fill:url(#id3)" x="97460" y="103278" width="52453" height="61486"/>
       </mask>
       <mask id="id4">
  <linearGradient id="id5" gradientUnits="userSpaceOnUse" x1="146465" y1="68560.7" x2="146465" y2="199850">
   <stop offset="0" style="stop-opacity:1; stop-color:white"/>
   <stop offset="1" style="stop-opacity:0; stop-color:white"/>
  </linearGradient>
        <rect style="fill:url(#id5)" x="143017" y="103278" width="52453" height="61486"/>
       </mask>
       <mask id="id6">
  <linearGradient id="id7" gradientUnits="userSpaceOnUse" x1="77249.1" y1="141778" x2="148410" y2="165577">
   <stop offset="0" style="stop-opacity:1; stop-color:white"/>
   <stop offset="1" style="stop-opacity:0.501961; stop-color:white"/>
  </linearGradient>
        <rect style="fill:url(#id7)" x="76441" y="139937" width="72231" height="26780"/>
       </mask>
       <mask id="id8">
  <linearGradient id="id9" gradientUnits="userSpaceOnUse" x1="215680" y1="141778" x2="144519" y2="165577">
   <stop offset="0" style="stop-opacity:1; stop-color:white"/>
   <stop offset="1" style="stop-opacity:0.501961; stop-color:white"/>
  </linearGradient>
        <rect style="fill:url(#id9)" x="144257" y="139937" width="72231" height="26780"/>
       </mask>
  <radialGradient id="id10" gradientUnits="userSpaceOnUse" gradientTransform="matrix(2.14513 1.43504 -1.35245 2.02165 -48371 -267071)" cx="132000" cy="76000" r="300000" fx="132000" fy="76000">
   <stop offset="0" style="stop-opacity:1; stop-color:#FEFEFE"/>
   <stop offset="1" style="stop-opacity:1; stop-color:#CCCCCC"/>
  </radialGradient>
 </defs>
 <g id="Layer_x0020_1">
  <metadata id="CorelCorpID_0Corel-Layer"/>
  <rect class="fil0" width="600000" height="400000"/>
  <polygon class="fil1" points="0,300000 600000,300000 600000,400000 0,400000 "/>
  <g id="_421396344">
   <g>
    <circle class="fil2" cx="381512" cy="350000" r="24278"/>
    <path class="fil3" d="M368244 350000c0,-1790 -1451,-3241 -3241,-3241 -1790,0 -3241,1451 -3241,3241 0,1790 1451,3241 3241,3241 1790,0 3241,-1451 3241,-3241zm27320 908c-223,3404 -1677,6680 -4178,9136 -1234,-470 -2662,-401 -3895,311 -1234,713 -2008,1915 -2218,3218 -3378,938 -6942,559 -10001,-950l2253 -4037c2701,1252 5947,1216 8721,-386 2775,-1602 4429,-4395 4695,-7360l4623 68zm-7418 10582c-1550,895 -2082,2878 -1186,4428 894,1550 2877,2081 4427,1186 1550,-895 2081,-2877 1186,-4427 -895,-1550 -2877,-2082 -4427,-1187zm-12874 -24113c3059,-1509 6623,-1888 10001,-950 210,1304 984,2506 2218,3218 1233,712 2661,781 3895,312 2501,2456 3955,5732 4178,9136l-4623 67c-266,-2965 -1920,-5758 -4695,-7360 -2774,-1601 -6020,-1638 -8721,-386l-2253 -4037zm12874 1133c1550,895 3532,364 4427,-1186 895,-1550 364,-3533 -1186,-4428 -1550,-895 -3533,-364 -4427,1187 -896,1550 -364,3532 1186,4427zm-14446 23206c-2837,-1895 -4947,-4793 -5823,-8186 1024,-834 1678,-2105 1678,-3530 0,-1424 -654,-2695 -1678,-3530 876,-3393 2986,-6290 5823,-8186l2370 3970c-2435,1713 -4026,4543 -4026,7746 0,3204 1591,6033 4026,7746l-2370 3970z"/>
   </g>
   <g>
    <path class="fil2" d="M147445 380880c-827,0 -1648,-217 -2373,-635l-7556 -4472c-1128,-632 -578,-855 -205,-983 1504,-527 1810,-646 3416,-1558 168,-96 390,-62 562,40l5804 3444c210,113 507,113 701,0l22631 -13063c210,-119 346,-363 346,-612l0 -26114c0,-261 -136,-494 -350,-624l-22622 -13052c-210,-124 -487,-124 -697,0l-22617 13052c-219,125 -359,368 -359,618l0 26114c0,250 136,487 351,607l6198 3580c3365,1682 5421,-300 5421,-2294l0 -25775c0,-369 289,-652 657,-652l2866 0c357,0 652,283 652,652l0 25785c0,4487 -2447,7065 -6701,7065 -1309,0 -2340,0 -5218,-1417l-5936 -3421c-1468,-850 -2374,-2436 -2374,-4130l0 -26114c0,-1700 906,-3286 2374,-4124l22653 -13069c1433,-810 3337,-810 4759,0l22625 13074c1461,844 2373,2425 2373,4124l0 26115c0,1694 -912,3274 -2373,4124l-22625 13069c-726,419 -1547,634 -2385,634l2 12zm0 0l0 0 0 0zm6990 -17995c-9902,0 -11978,-4545 -11978,-8358 0,-362 292,-651 655,-651l2924 0c322,0 594,235 645,554 442,2978 1756,4481 7744,4481 4770,0 6798,-1078 6798,-3607 0,-1456 -578,-2538 -7988,-3263 -6197,-612 -10026,-1977 -10026,-6934 0,-4565 3852,-7285 10304,-7285 7245,0 10836,2516 11290,7920 17,187 -51,368 -176,504 -125,131 -300,210 -481,210l-2940 0c-306,0 -573,-216 -635,-510 -708,-3133 -2419,-4136 -7070,-4136 -5205,0 -5811,1813 -5811,3173 0,1648 713,2130 7738,3059 6956,923 10259,2226 10259,7115 0,4928 -4113,7755 -11285,7755l33 -27z"/>
   </g>
   <g id="_421400568">
    <polygon class="fil4" points="434333,333597 452979,331058 452986,349043 434350,349149 "/>
    <polygon class="fil5" points="455230,330726 479952,327117 479952,348814 455230,349010 "/>
    <polygon class="fil2" points="452969,351115 452984,369115 434348,366553 434347,350994 "/>
    <polygon class="fil6" points="479958,351284 479952,372883 455230,369394 455195,351244 "/>
   </g>
   <g id="_421398936">
    <polygon class="fil2" points="312572,328852 306932,338620 301293,328852 282512,328852 306932,371148 331352,328852 "/>
    <polygon class="fil5" points="312572,328852 306932,338620 301293,328852 292280,328852 306932,354229 321584,328852 "/>
   </g>
   <g id="_421397688">
    <path class="fil2" d="M225609 335191c-6803,-1256 -12176,70 -14339,3768 -1604,2756 -1151,6454 1117,10361 174,349 628,453 942,244 349,-174 453,-628 244,-942 -2024,-3523 -2407,-6698 -1117,-8966 1780,-3070 6594,-4256 12873,-3104 384,69 733,-175 803,-559 70,-383 -140,-732 -523,-802zm-9664 18908c2756,3035 6315,5861 10396,8199 9873,5686 20374,7221 25571,3697 315,-209 384,-662 175,-976 -209,-315 -663,-384 -977,-175 -4640,3175 -14617,1710 -24071,-3733 -3942,-2267 -7431,-5023 -10082,-7954 -244,-279 -698,-314 -977,-35 -279,245 -314,698 -35,977l0 0z"/>
    <path class="fil2" d="M250238 353262c4465,-5268 6000,-10571 3872,-14268 -1570,-2722 -4918,-4152 -9314,-4222 -384,0 -698,314 -698,698 0,384 314,698 698,698 3977,35 6838,1291 8128,3523 1779,3070 384,7815 -3732,12664 -245,279 -210,733 69,977 279,244 733,209 977,-70l0 0zm-11443 -17862c-4011,872 -8303,2547 -12419,4919 -10221,5896 -16850,14583 -15943,20862 70,384 419,628 803,593 383,-70 627,-418 593,-802 -838,-5582 5477,-13780 15245,-19432 4012,-2302 8163,-3942 12036,-4779 383,-70 627,-454 523,-837 -105,-349 -454,-593 -838,-524z"/>
    <path class="fil2" d="M222294 365542c2338,6489 6140,10501 10431,10501 3140,0 6001,-2128 8268,-5896 210,-314 105,-768 -244,-942 -314,-209 -768,-105 -942,244 -2023,3384 -4500,5198 -7082,5198 -3558,0 -6942,-3558 -9105,-9594 -140,-349 -523,-558 -907,-418 -384,140 -558,558 -419,907l0 0zm21281 -1256c1221,-3837 1849,-8303 1849,-12943 0,-11547 -4047,-21524 -9803,-24071 -349,-140 -768,0 -907,349 -140,349 0,767 349,907 5128,2267 8965,11721 8965,22815 0,4501 -628,8791 -1779,12524 -104,384 105,768 454,873 349,104 732,-105 872,-454l0 0zm13117 -698c0,-1849 -1500,-3349 -3349,-3349 -1849,0 -3349,1500 -3349,3349 0,1849 1500,3349 3349,3349 1884,0 3349,-1500 3349,-3349zm-1396 0c0,1082 -872,1954 -1953,1954 -1082,0 -1954,-872 -1954,-1954 0,-1081 872,-1953 1954,-1953 1081,0 1953,872 1953,1953zm-43293 3349c1849,0 3349,-1500 3349,-3349 0,-1849 -1500,-3349 -3349,-3349 -1849,0 -3349,1500 -3349,3349 0,1849 1500,3349 3349,3349zm0 -1395c-1081,0 -1954,-872 -1954,-1954 0,-1081 873,-1953 1954,-1953 1081,0 1954,872 1954,1953 0,1082 -873,1954 -1954,1954z"/>
    <path class="fil2" d="M232725 330656c1849,0 3349,-1500 3349,-3349 0,-1849 -1500,-3349 -3349,-3349 -1849,0 -3349,1500 -3349,3349 0,1849 1500,3349 3349,3349l0 0zm0 -1396c-1081,0 -1953,-872 -1953,-1953 0,-1082 872,-1954 1953,-1954 1082,0 1954,872 1954,1954 0,1081 -907,1953 -1954,1953l0 0zm489 24455c-1291,280 -2582,-558 -2861,-1848 -279,-1291 558,-2582 1849,-2861 1291,-279 2582,558 2861,1849 279,1291 -524,2581 -1849,2860z"/>
   </g>
  </g>
  <g>
   <polygon class="fil7" points="50000,75000 550000,75000 550000,225000 50000,225000 "/>
   <g id="_415912608">
    <g>
     <g>
      <path class="fil8" d="M146465 167758c-1,0 -2,0 -3,0 1,0 2,0 3,0zm45654 -63436c3239,4335 3990,13686 2022,23339 6244,-1797 11354,-2432 14022,-1952 2832,510 -2631,8565 -7646,14543 7000,-281 12548,369 15163,1526 3388,1499 -9515,11404 -15749,14953 -6817,3881 -14473,6225 -21947,7599 -6096,5 -12196,15 -18300,371 -170,-71 -343,-140 -519,-207 -415,-159 -847,-308 -1294,-448 -1410,-441 -2966,-787 -4605,-1039 -1574,-241 -3226,-395 -4897,-462 -414,-16 -828,-27 -1243,-33 -100,-1 -201,-2 -302,-3 -26,0 -53,0 -79,-1 -81,0 -163,0 -244,-1 -24,0 -49,0 -74,0 -81,0 -162,1 -243,1 -127,1 -254,2 -380,4 -80,1 -159,2 -238,4 -336,6 -671,15 -1005,29 -1673,65 -3325,218 -4901,459 -1644,251 -3204,598 -4618,1040 -446,139 -878,288 -1293,446 -179,68 -356,139 -530,211 -6096,-356 -12187,-366 -18275,-371 -7473,-1374 -15130,-3718 -21946,-7599 -6234,-3549 -19137,-13454 -15749,-14953 2615,-1156 8163,-1807 15163,-1526 -5015,-5978 -10479,-14033 -7646,-14543 2668,-480 7778,155 14024,1952 -1968,-9652 -1217,-19003 2021,-23339 5905,-2307 17747,538 27807,6911 4378,-10757 11806,-19621 17847,-21337 5975,1717 13429,10587 17829,21349 10064,-6381 21916,-9232 27825,-6923z"/>
      <path class="fil9" style="mask:url(#id0)" d="M145269 125779c19,4 39,8 59,13 44,130 89,37 107,33 531,196 1130,861 1607,1447 533,655 915,1212 1303,1834 387,622 781,1309 1185,2101 405,791 820,1687 1186,2679 367,993 684,2082 967,3229 282,1147 529,2352 692,3585 162,1233 241,2494 259,3621 18,1128 -24,2122 -188,3345 -165,1224 -451,2676 -752,3942 -300,1266 -614,2345 -1037,3488 -423,1143 -955,2348 -1545,3503 -590,1154 -1237,2258 -1723,3058 -486,800 -811,1297 -1226,1233 -414,-64 -917,-688 -1506,-1467 -590,-778 -1266,-1709 -1849,-2620 -582,-911 -1072,-1801 -1493,-2663 -422,-862 -775,-1696 -1090,-2675 -314,-980 -588,-2106 -846,-3315 -259,-1210 -501,-2503 -622,-3700 -120,-1197 -119,-2299 -66,-3514 53,-1215 158,-2544 312,-3745 154,-1200 357,-2272 647,-3388 291,-1117 669,-2279 1073,-3293 406,-1015 838,-1883 1346,-2800 508,-918 1093,-1885 1617,-2660 493,-730 933,-1290 1462,-1282 38,101 108,92 121,11z"/>
      <path class="fil10" d="M146465 167758c-12758,-6914 -21579,-21747 -21579,-38930 0,-17186 12394,-36322 21579,-38932 9083,2610 21579,21746 21579,38932 0,17183 -8821,32016 -21579,38930z"/>
      <path class="fil11" d="M148056 167442c148,1492 -14203,-2577 -24494,-6416 -9333,-3481 -19349,-8661 -27132,-16350 -5190,-5127 -15314,-18310 -11664,-18967 7559,-1360 34720,6227 51756,23857 4934,5106 11131,13828 11534,17876z"/>
      <path class="fil11" d="M144873 167442c-149,1492 14203,-2577 24493,-6416 9334,-3481 19349,-8661 27133,-16350 5190,-5127 15313,-18310 11664,-18967 -7559,-1360 -34721,6228 -51757,23857 -4933,5106 -11130,13828 -11533,17876z"/>
      <path class="fil12" style="mask:url(#id2)" d="M146465 164088c-13847,2173 -29315,-4040 -39390,-17230 -10077,-13191 -11784,-35147 -6264,-42536 8503,-3322 29315,4039 39392,17231 10075,13189 12001,29747 6262,42535z"/>
      <path class="fil12" style="mask:url(#id4)" d="M146465 164088c13848,2173 29315,-4040 39391,-17230 10076,-13191 11783,-35147 6263,-42536 -8503,-3322 -29315,4039 -39392,17231 -10075,13189 -12001,29747 -6262,42535z"/>
      <path class="fil13" style="mask:url(#id6)" d="M148410 165577c493,1363 -14383,1021 -25265,-87 -9869,-1005 -20798,-3436 -30147,-8759 -6234,-3549 -19137,-13454 -15749,-14953 7016,-3103 35144,-2563 55793,9837 5980,3591 14031,10266 15368,13962z"/>
      <path class="fil13" style="mask:url(#id8)" d="M144519 165577c-493,1362 14383,1021 25265,-87 9869,-1005 20798,-3436 30147,-8759 6234,-3549 19137,-13454 15749,-14953 -7017,-3103 -35144,-2564 -55793,9836 -5980,3592 -14031,10267 -15368,13963z"/>
      <path class="fil3" d="M146465 164353c-4557,-3546 -7708,-11153 -7708,-19964 0,-8813 5102,-19859 7708,-19964 2610,0 7708,11151 7708,19964 0,8811 -3151,16418 -7708,19964z"/>
      <path class="fil14" d="M213926 161763c-15443,7134 -41928,1727 -54618,7916 -3004,18 -5181,37 -8185,56 -1278,-1667 -3423,-1987 -4661,-1977l-20 0c-1239,-10 -3383,310 -4662,1977 -3004,-19 -5180,-38 -8184,-56 -12691,-6189 -39175,-782 -54618,-7916 18060,3876 36131,1880 54241,2938 7030,-2925 19435,-2925 26465,0 18111,-1058 36182,938 54242,-2938z"/>
     </g>
     <path class="fil15" d="M266184 136292l0 31600 -8836 0 0 -75994 20848 0c9315,0 16200,1775 20653,5359 4454,3566 6689,8924 6689,16110 0,10043 -5092,16839 -15294,20369l20635 34156 -10433 0 -18417 -31600 -15845 0zm0 -7595l12119 0c6227,0 10805,-1242 13715,-3708 2910,-2484 4365,-6210 4365,-11160 0,-5022 -1473,-8641 -4436,-10859 -2963,-2218 -7718,-3336 -14283,-3336l-11480 0 0 29063zm99858 18968c0,6689 -2431,11905 -7275,15649 -4861,3744 -11444,5624 -19765,5624 -8996,0 -15934,-1171 -20777,-3495l0 -8517c3105,1314 6512,2360 10184,3123 3673,763 7310,1136 10912,1136 5891,0 10327,-1118 13307,-3354 2981,-2235 4472,-5340 4472,-9333 0,-2625 -533,-4790 -1580,-6476 -1064,-1668 -2838,-3229 -5305,-4649 -2484,-1419 -6245,-3033 -11302,-4825 -7079,-2538 -12136,-5536 -15152,-8996 -3035,-3460 -4561,-7985 -4561,-13574 0,-5855 2200,-10503 6601,-13981 4400,-3460 10220,-5199 17477,-5199 7541,0 14496,1384 20830,4170l-2750 7682c-6263,-2626 -12367,-3938 -18293,-3938 -4684,0 -8339,993 -10965,2998 -2644,2023 -3957,4809 -3957,8375 0,2644 479,4790 1455,6476 976,1686 2608,3229 4915,4631 2306,1402 5837,2945 10575,4649 7966,2839 13449,5890 16447,9137 2999,3265 4507,7488 4507,12687zm81512 -17868c0,12154 -3088,21718 -9227,28691 -6157,6955 -14709,10450 -25656,10450 -11196,0 -19837,-3424 -25923,-10273 -6068,-6848 -9120,-16501 -9120,-28974 0,-12385 3052,-21966 9156,-28779 6103,-6814 14762,-10220 25993,-10220 10912,0 19429,3478 25568,10397 6139,6938 9209,16501 9209,28708zm-60557 0c0,10292 2182,18098 6564,23403 4383,5323 10753,7985 19110,7985 8410,0 14780,-2644 19073,-7949 4294,-5305 6441,-13112 6441,-23439 0,-10238 -2129,-17991 -6405,-23261 -4294,-5287 -10628,-7931 -19003,-7931 -8428,0 -14833,2662 -19216,7967 -4382,5323 -6564,13059 -6564,23225zm120386 17868c0,6689 -2431,11905 -7275,15649 -4861,3744 -11444,5624 -19765,5624 -8996,0 -15933,-1171 -20777,-3495l0 -8517c3105,1314 6511,2360 10184,3123 3673,763 7310,1136 10912,1136 5891,0 10327,-1118 13307,-3354 2981,-2235 4472,-5340 4472,-9333 0,-2625 -532,-4790 -1580,-6476 -1064,-1668 -2839,-3229 -5305,-4649 -2484,-1419 -6245,-3033 -11302,-4825 -7079,-2538 -12136,-5536 -15153,-8996 -3034,-3460 -4559,-7985 -4559,-13574 0,-5855 2200,-10503 6600,-13981 4400,-3460 10220,-5199 17477,-5199 7541,0 14496,1384 20830,4170l-2750 7682c-6263,-2626 -12367,-3938 -18293,-3938 -4684,0 -8339,993 -10965,2998 -2644,2023 -3957,4809 -3957,8375 0,2644 479,4790 1455,6476 976,1686 2608,3229 4915,4631 2306,1402 5837,2945 10574,4649 7967,2839 13450,5890 16449,9137 2998,3265 4506,7488 4506,12687z"/>
    </g>
    <path class="fil16" d="M64788 209790l0 -18748 2488 0 0 7725 9687 0 0 -7725 2488 0 0 18748 -2488 0 0 -8824 -9687 0 0 8824 -2488 0zm18045 -9125c0,-3107 838,-5542 2509,-7301 1671,-1759 3827,-2636 6472,-2636 1732,0 3290,415 4682,1240 1388,825 2448,1977 3177,3456 729,1475 1096,3151 1096,5023 0,1898 -384,3600 -1152,5097 -768,1501 -1855,2636 -3260,3404 -1410,772 -2928,1156 -4556,1156 -1768,0 -3343,-427 -4735,-1278 -1388,-851 -2444,-2012 -3160,-3487 -715,-1471 -1073,-3029 -1073,-4674zm2566 44c0,2256 606,4032 1820,5328 1213,1296 2736,1946 4569,1946 1867,0 3399,-654 4608,-1963 1205,-1309 1807,-3169 1807,-5578 0,-1523 -258,-2854 -773,-3988 -515,-1135 -1269,-2016 -2260,-2640 -995,-624 -2108,-939 -3343,-939 -1754,0 -3264,603 -4530,1807 -1265,1205 -1898,3212 -1898,6027zm17748 3059l2331 -209c109,942 366,1714 772,2321 406,602 1034,1091 1885,1466 851,371 1811,559 2876,559 947,0 1781,-140 2505,-424 725,-283 1261,-671 1615,-1165 353,-493 532,-1029 532,-1605 0,-585 -170,-1096 -511,-1537 -340,-436 -903,-803 -1688,-1104 -502,-192 -1615,-497 -3339,-912 -1724,-415 -2928,-803 -3617,-1169 -895,-472 -1559,-1056 -1995,-1750 -441,-694 -659,-1475 -659,-2335 0,-951 271,-1837 807,-2658 537,-825 1318,-1448 2353,-1876 1030,-428 2177,-642 3439,-642 1387,0 2613,223 3674,672 1060,445 1877,1105 2448,1977 572,869 877,1855 921,2955l-2383 183c-126,-1183 -558,-2077 -1296,-2680 -738,-606 -1828,-908 -3269,-908 -1501,0 -2596,275 -3281,826 -685,550 -1030,1213 -1030,1990 0,671 244,1226 729,1662 480,432 1723,882 3740,1336 2016,458 3399,855 4150,1195 1086,502 1894,1135 2413,1908 519,767 777,1653 777,2657 0,999 -284,1933 -855,2815 -572,881 -1388,1567 -2458,2055 -1068,489 -2269,733 -3609,733 -1693,0 -3111,-249 -4254,-742 -1148,-493 -2043,-1235 -2693,-2230 -655,-990 -995,-2112 -1030,-3364zm18277 6022l0 -18748 7078 0c1244,0 2195,62 2854,179 921,153 1693,445 2317,873 624,432 1126,1034 1506,1807 379,772 567,1623 567,2553 0,1588 -506,2937 -1523,4037 -1012,1104 -2850,1654 -5503,1654l-4809 0 0 7645 -2487 0zm2487 -9845l4844 0c1606,0 2741,-297 3417,-894 672,-599 1008,-1436 1008,-2523 0,-781 -196,-1453 -593,-2012 -398,-558 -921,-929 -1567,-1108 -419,-109 -1191,-166 -2313,-166l-4796 0 0 6703zm15396 9845l0 -18748 2488 0 0 18748 -2488 0zm11621 0l0 -16548 -6179 0 0 -2200 14846 0 0 2200 -6179 0 0 16548 -2488 0zm7232 0l7191 -18748 2728 0 7633 18748 -2824 0 -2169 -5682 -7894 0 -2034 5682 -2631 0zm5393 -7698l6389 0 -1955 -5197c-589,-1580 -1034,-2885 -1344,-3915 -257,1222 -602,2422 -1034,3609l-2056 5503zm14022 7698l0 -18748 2487 0 0 16549 9217 0 0 2199 -11704 0zm21388 0l0 -18748 2487 0 0 18748 -2487 0zm6830 0l0 -18748 2548 0 9836 14716 0 -14716 2383 0 0 18748 -2548 0 -9837 -14715 0 14715 -2382 0zm19066 0l0 -18748 12647 0 0 2200 -10160 0 0 5839 8798 0 0 2199 -8798 0 0 8510 -2487 0zm15103 -9125c0,-3107 838,-5542 2510,-7301 1671,-1759 3827,-2636 6472,-2636 1732,0 3290,415 4682,1240 1388,825 2448,1977 3177,3456 729,1475 1095,3151 1095,5023 0,1898 -384,3600 -1152,5097 -768,1501 -1855,2636 -3259,3404 -1410,772 -2929,1156 -4557,1156 -1767,0 -3342,-427 -4734,-1278 -1388,-851 -2445,-2012 -3160,-3487 -716,-1471 -1074,-3029 -1074,-4674zm2566 44c0,2256 607,4032 1820,5328 1213,1296 2737,1946 4569,1946 1868,0 3400,-654 4609,-1963 1204,-1309 1806,-3169 1806,-5578 0,-1523 -257,-2854 -772,-3988 -515,-1135 -1270,-2016 -2261,-2640 -995,-624 -2107,-939 -3342,-939 -1755,0 -3265,603 -4530,1807 -1266,1205 -1899,3212 -1899,6027zm18613 9081l0 -18748 8309 0c1671,0 2941,171 3809,507 869,336 1563,929 2082,1780 519,851 777,1794 777,2824 0,1331 -432,2452 -1292,3364 -859,913 -2186,1488 -3984,1737 659,314 1156,629 1497,934 724,663 1409,1497 2051,2496l3242 5106 -3098 0 -2479 -3901c-720,-1131 -1318,-1990 -1785,-2588 -471,-598 -890,-1013 -1261,-1253 -366,-235 -746,-401 -1130,-497 -280,-57 -738,-87 -1379,-87l-2872 0 0 8326 -2487 0zm2487 -10473l5324 0c1135,0 2016,-118 2654,-354 637,-231 1121,-606 1449,-1126 331,-515 497,-1073 497,-1680 0,-886 -319,-1619 -960,-2191 -641,-571 -1654,-855 -3038,-855l-5926 0 0 6206zm16317 10473l0 -18748 3718 0 4434 13271c410,1235 707,2161 895,2776 214,-681 550,-1685 1003,-3007l4513 -13040 3321 0 0 18748 -2383 0 0 -15684 -5472 15684 -2235 0 -5411 -15972 0 15972 -2383 0zm19808 0l7192 -18748 2728 0 7632 18748 -2823 0 -2169 -5682 -7895 0 -2033 5682 -2632 0zm5394 -7698l6389 0 -1955 -5197c-589,-1580 -1035,-2885 -1344,-3915 -258,1222 -602,2422 -1035,3609l-2055 5503zm16950 7698l0 -16548 -6180 0 0 -2200 14847 0 0 2200 -6180 0 0 16548 -2487 0zm11647 0l0 -18748 2488 0 0 18748 -2488 0zm6097 -9125c0,-3107 838,-5542 2509,-7301 1671,-1759 3828,-2636 6472,-2636 1732,0 3290,415 4682,1240 1388,825 2449,1977 3177,3456 729,1475 1096,3151 1096,5023 0,1898 -384,3600 -1152,5097 -768,1501 -1855,2636 -3260,3404 -1410,772 -2928,1156 -4556,1156 -1768,0 -3343,-427 -4735,-1278 -1388,-851 -2444,-2012 -3160,-3487 -715,-1471 -1073,-3029 -1073,-4674zm2566 44c0,2256 606,4032 1820,5328 1213,1296 2736,1946 4569,1946 1867,0 3399,-654 4608,-1963 1204,-1309 1807,-3169 1807,-5578 0,-1523 -258,-2854 -773,-3988 -515,-1135 -1270,-2016 -2260,-2640 -995,-624 -2108,-939 -3343,-939 -1754,0 -3264,603 -4530,1807 -1265,1205 -1898,3212 -1898,6027zm18534 9081l0 -18748 2548 0 9837 14716 0 -14716 2382 0 0 18748 -2548 0 -9837 -14715 0 14715 -2382 0zm25398 -6022l2330 -209c110,942 367,1714 773,2321 406,602 1034,1091 1885,1466 851,371 1811,559 2876,559 947,0 1780,-140 2505,-424 724,-283 1261,-671 1614,-1165 354,-493 533,-1029 533,-1605 0,-585 -170,-1096 -511,-1537 -340,-436 -903,-803 -1689,-1104 -502,-192 -1614,-497 -3338,-912 -1724,-415 -2928,-803 -3618,-1169 -894,-472 -1558,-1056 -1994,-1750 -441,-694 -659,-1475 -659,-2335 0,-951 270,-1837 807,-2658 537,-825 1318,-1448 2353,-1876 1029,-428 2177,-642 3439,-642 1387,0 2613,223 3674,672 1060,445 1876,1105 2448,1977 572,869 877,1855 921,2955l-2383 183c-127,-1183 -558,-2077 -1296,-2680 -738,-606 -1828,-908 -3269,-908 -1501,0 -2596,275 -3281,826 -685,550 -1030,1213 -1030,1990 0,671 244,1226 729,1662 480,432 1723,882 3739,1336 2016,458 3400,855 4151,1195 1086,502 1893,1135 2413,1908 519,767 776,1653 776,2657 0,999 -283,1933 -855,2815 -571,881 -1387,1567 -2457,2055 -1069,489 -2269,733 -3609,733 -1693,0 -3111,-249 -4255,-742 -1147,-493 -2042,-1235 -2692,-2230 -655,-990 -995,-2112 -1030,-3364zm23561 6022l0 -7942 -7227 -10806 2985 0 3705 5674c690,1051 1332,2103 1916,3155 572,-982 1266,-2082 2073,-3304l3631 -5525 2893 0 -7489 10806 0 7942 -2487 0zm11368 -6022l2331 -209c109,942 366,1714 772,2321 406,602 1034,1091 1885,1466 852,371 1812,559 2876,559 947,0 1781,-140 2505,-424 725,-283 1261,-671 1615,-1165 353,-493 533,-1029 533,-1605 0,-585 -171,-1096 -511,-1537 -341,-436 -903,-803 -1689,-1104 -502,-192 -1615,-497 -3339,-912 -1724,-415 -2928,-803 -3617,-1169 -895,-472 -1558,-1056 -1995,-1750 -441,-694 -659,-1475 -659,-2335 0,-951 271,-1837 808,-2658 537,-825 1318,-1448 2352,-1876 1030,-428 2178,-642 3439,-642 1387,0 2614,223 3674,672 1061,445 1877,1105 2448,1977 572,869 877,1855 921,2955l-2383 183c-126,-1183 -558,-2077 -1296,-2680 -737,-606 -1828,-908 -3268,-908 -1502,0 -2597,275 -3282,826 -685,550 -1030,1213 -1030,1990 0,671 244,1226 729,1662 480,432 1724,882 3740,1336 2016,458 3399,855 4150,1195 1086,502 1894,1135 2413,1908 520,767 777,1653 777,2657 0,999 -284,1933 -855,2815 -572,881 -1388,1567 -2457,2055 -1069,489 -2270,733 -3609,733 -1693,0 -3112,-249 -4255,-742 -1148,-493 -2042,-1235 -2692,-2230 -655,-990 -996,-2112 -1031,-3364zm23042 6022l0 -16548 -6179 0 0 -2200 14846 0 0 2200 -6179 0 0 16548 -2488 0zm11281 0l0 -18748 13537 0 0 2200 -11049 0 0 5760 10342 0 0 2200 -10342 0 0 6389 11494 0 0 2199 -13982 0zm17360 0l0 -18748 3718 0 4434 13271c410,1235 707,2161 895,2776 213,-681 550,-1685 1003,-3007l4513 -13040 3321 0 0 18748 -2383 0 0 -15684 -5472 15684 -2235 0 -5411 -15972 0 15972 -2383 0zm36863 0l-2305 0 0 -14672c-554,533 -1283,1061 -2182,1589 -899,528 -1710,925 -2426,1187l0 -2226c1287,-602 2413,-1335 3378,-2199 964,-860 1649,-1693 2051,-2505l1484 0 0 18826zm7205 0l0 -2618 2618 0 0 2618 -2618 0zm5991 -9252c0,-2212 227,-4001 681,-5354 458,-1357 1135,-2400 2034,-3129 894,-729 2024,-1091 3386,-1091 1004,0 1885,201 2649,607 760,405 1388,990 1877,1754 488,759 872,1689 1152,2784 283,1095 423,2575 423,4429 0,2200 -227,3981 -676,5333 -450,1358 -1126,2401 -2025,3134 -895,733 -2030,1099 -3400,1099 -1802,0 -3221,-641 -4250,-1929 -1235,-1571 -1851,-4115 -1851,-7637zm2357 9c0,3086 358,5137 1078,6149 720,1017 1610,1523 2666,1523 1056,0 1946,-511 2666,-1527 720,-1021 1078,-3068 1078,-6145 0,-3085 -358,-5136 -1078,-6149 -715,-1016 -1614,-1523 -2692,-1523 -1056,0 -1903,450 -2536,1344 -790,1139 -1182,3252 -1182,6328z"/>
   </g>
  </g>
 </g>
</svg>
