<?xml version="1.0" encoding="UTF-8"?>
<!DOCTYPE svg PUBLIC "-//W3C//DTD SVG 1.1//EN" "http://www.w3.org/Graphics/SVG/1.1/DTD/svg11.dtd">
<!-- Creator: CorelDRAW X7 -->
<svg xmlns="http://www.w3.org/2000/svg" xml:space="preserve" width="500px" height="150px" version="1.1" style="shape-rendering:geometricPrecision; text-rendering:geometricPrecision; image-rendering:optimizeQuality; fill-rule:evenodd; clip-rule:evenodd"
viewBox="0 0 500000 150000"
 xmlns:xlink="http://www.w3.org/1999/xlink">
 <defs>
  <style type="text/css">
   <![CDATA[
    .fil0 {fill:none}
    .fil5 {fill:#B04B87}
    .fil8 {fill:#BFBCBD}
    .fil1 {fill:#CCCCCC}
    .fil3 {fill:#EB6FA5}
    .fil4 {fill:#F4C5E1}
    .fil6 {fill:#FDE7EF}
    .fil2 {fill:white}
    .fil7 {fill:white}
    .fil10 {fill:#999999;fill-rule:nonzero}
    .fil9 {fill:#EB6FA5;fill-rule:nonzero}
   ]]>
  </style>
       <mask id="id0">
  <linearGradient id="id1" gradientUnits="userSpaceOnUse" x1="93379.8" y1="76335.8" x2="60022.9" y2="103745">
   <stop offset="0" style="stop-opacity:1; stop-color:white"/>
   <stop offset="0.388235" style="stop-opacity:0.501961; stop-color:white"/>
   <stop offset="1" style="stop-opacity:0; stop-color:white"/>
  </linearGradient>
        <rect style="fill:url(#id1)" x="88406" y="50517" width="14481" height="37629"/>
       </mask>
       <mask id="id2">
  <linearGradient id="id3" gradientUnits="userSpaceOnUse" x1="96465" y1="-6439.49" x2="96465" y2="124850">
   <stop offset="0" style="stop-opacity:1; stop-color:white"/>
   <stop offset="1" style="stop-opacity:0; stop-color:white"/>
  </linearGradient>
        <rect style="fill:url(#id3)" x="47460" y="28277" width="52453" height="61486"/>
       </mask>
       <mask id="id4">
  <linearGradient id="id5" gradientUnits="userSpaceOnUse" x1="96465" y1="-6439.49" x2="96465" y2="124850">
   <stop offset="0" style="stop-opacity:1; stop-color:white"/>
   <stop offset="1" style="stop-opacity:0; stop-color:white"/>
  </linearGradient>
        <rect style="fill:url(#id5)" x="93017" y="28277" width="52453" height="61486"/>
       </mask>
       <mask id="id6">
  <linearGradient id="id7" gradientUnits="userSpaceOnUse" x1="27249" y1="66778.1" x2="98409.6" y2="90577">
   <stop offset="0" style="stop-opacity:1; stop-color:white"/>
   <stop offset="1" style="stop-opacity:0.501961; stop-color:white"/>
  </linearGradient>
        <rect style="fill:url(#id7)" x="26441" y="64937" width="72231" height="26780"/>
       </mask>
       <mask id="id8">
  <linearGradient id="id9" gradientUnits="userSpaceOnUse" x1="165680" y1="66777.9" x2="94519.1" y2="90576.8">
   <stop offset="0" style="stop-opacity:1; stop-color:white"/>
   <stop offset="1" style="stop-opacity:0.501961; stop-color:white"/>
  </linearGradient>
        <rect style="fill:url(#id9)" x="94257" y="64936" width="72231" height="26780"/>
       </mask>
 </defs>
 <g id="Layer_x0020_1">
  <metadata id="CorelCorpID_0Corel-Layer"/>
  <g id="_421596264">
   <polygon class="fil0" points="0,0 500000,0 500000,150000 0,150000 "/>
   <g>
    <g>
     <g>
      <path class="fil1" d="M96465 92758c-1,0 -2,0 -3,0 1,-1 2,0 3,0zm45654 -63436c3239,4335 3990,13686 2022,23339 6244,-1797 11354,-2432 14022,-1952 2832,510 -2631,8565 -7646,14543 7000,-281 12548,369 15163,1526 3388,1498 -9515,11404 -15749,14953 -6817,3881 -14473,6225 -21947,7599 -6096,4 -12196,14 -18300,371 -170,-71 -343,-140 -519,-207 -415,-159 -847,-308 -1294,-448 -1410,-441 -2966,-787 -4605,-1039 -1574,-241 -3226,-395 -4898,-462 -413,-16 -827,-27 -1242,-33 -100,-2 -201,-2 -302,-3 -26,-1 -53,-1 -79,-1 -81,0 -163,0 -244,-1 -24,0 -49,0 -74,0 -81,0 -162,1 -243,1 -127,1 -254,2 -380,4 -80,1 -159,2 -238,3 -336,6 -671,16 -1005,29 -1673,66 -3325,219 -4901,460 -1644,251 -3204,597 -4618,1039 -446,140 -878,288 -1293,447 -179,68 -356,139 -530,211 -6096,-356 -12187,-366 -18275,-371 -7474,-1374 -15130,-3718 -21946,-7599 -6234,-3549 -19137,-13455 -15749,-14953 2615,-1156 8163,-1807 15163,-1526 -5015,-5978 -10479,-14033 -7646,-14543 2668,-480 7778,155 14024,1952 -1968,-9653 -1218,-19004 2021,-23339 5905,-2307 17747,538 27807,6910 4378,-10756 11806,-19620 17847,-21336 5975,1717 13429,10587 17829,21348 10064,-6380 21916,-9231 27825,-6922z"/>
      <path class="fil2" style="mask:url(#id0)" d="M95269 50779c19,3 39,8 59,13 44,130 89,36 107,33 531,196 1130,861 1607,1447 533,655 915,1212 1303,1833 387,623 781,1310 1185,2102 405,791 820,1686 1186,2679 367,993 684,2082 967,3229 282,1147 529,2352 692,3585 162,1233 241,2494 259,3621 18,1128 -24,2122 -188,3345 -165,1223 -451,2676 -752,3941 -300,1266 -614,2346 -1037,3489 -423,1142 -955,2348 -1545,3503 -590,1154 -1237,2258 -1723,3058 -486,800 -811,1297 -1226,1233 -414,-64 -917,-689 -1506,-1467 -590,-778 -1266,-1710 -1849,-2621 -582,-910 -1072,-1800 -1493,-2662 -422,-862 -776,-1696 -1090,-2676 -314,-979 -588,-2105 -846,-3314 -259,-1210 -501,-2503 -622,-3700 -120,-1198 -119,-2299 -66,-3514 53,-1215 158,-2545 312,-3745 154,-1200 357,-2272 647,-3389 291,-1116 669,-2278 1073,-3292 406,-1015 838,-1883 1346,-2800 508,-918 1093,-1885 1617,-2660 493,-730 933,-1290 1461,-1283 39,102 109,93 122,12z"/>
      <path class="fil3" d="M96465 92758c-12758,-6915 -21579,-21747 -21579,-38931 0,-17185 12394,-36321 21579,-38931 9083,2610 21579,21746 21579,38931 0,17184 -8821,32016 -21579,38931z"/>
      <path class="fil4" d="M98056 92442c148,1492 -14203,-2577 -24494,-6416 -9333,-3482 -19349,-8661 -27132,-16351 -5190,-5126 -15314,-18309 -11664,-18966 7559,-1360 34720,6227 51756,23857 4934,5106 11131,13828 11534,17876z"/>
      <path class="fil4" d="M94873 92442c-149,1492 14203,-2577 24493,-6416 9333,-3481 19349,-8661 27133,-16351 5190,-5126 15313,-18309 11664,-18966 -7559,-1360 -34721,6227 -51757,23857 -4933,5106 -11130,13828 -11533,17876z"/>
      <path class="fil5" style="mask:url(#id2)" d="M96465 89088c-13848,2173 -29315,-4040 -39391,-17230 -10076,-13191 -11783,-35147 -6263,-42536 8503,-3322 29315,4039 39392,17231 10075,13189 12001,29747 6262,42535z"/>
      <path class="fil5" style="mask:url(#id4)" d="M96465 89088c13848,2173 29315,-4040 39391,-17230 10076,-13191 11783,-35147 6263,-42536 -8503,-3322 -29315,4039 -39392,17231 -10075,13189 -12001,29747 -6262,42535z"/>
      <path class="fil6" style="mask:url(#id6)" d="M98410 90577c493,1363 -14383,1021 -25265,-87 -9869,-1005 -20798,-3436 -30147,-8759 -6234,-3549 -19137,-13455 -15749,-14953 7016,-3103 35144,-2564 55793,9837 5980,3591 14031,10266 15368,13962z"/>
      <path class="fil6" style="mask:url(#id8)" d="M94519 90577c-493,1362 14383,1020 25265,-87 9869,-1005 20798,-3436 30147,-8759 6234,-3549 19137,-13455 15749,-14953 -7017,-3103 -35144,-2564 -55793,9836 -5980,3592 -14031,10267 -15368,13963z"/>
      <path class="fil7" d="M96465 89352c-4557,-3546 -7708,-11152 -7708,-19963 0,-8813 5102,-19859 7708,-19964 2610,0 7708,11151 7708,19964 0,8811 -3151,16417 -7708,19963z"/>
      <path class="fil8" d="M163926 86763c-15443,7134 -41928,1727 -54618,7915 -3004,19 -5181,38 -8185,56 -1278,-1666 -3423,-1987 -4661,-1976l-21 0c-1238,-11 -3382,310 -4661,1976 -3004,-18 -5180,-37 -8184,-56 -12691,-6188 -39175,-781 -54619,-7915 18061,3876 36132,1880 54242,2938 7030,-2925 19435,-2925 26465,0 18111,-1058 36182,938 54242,-2938z"/>
     </g>
     <path class="fil9" d="M216184 61291l0 31600 -8836 0 0 -75993 20848 0c9315,0 16200,1774 20653,5359 4454,3566 6689,8924 6689,16110 0,10043 -5092,16838 -15294,20369l20635 34155 -10433 0 -18417 -31600 -15845 0zm0 -7594l12119 0c6227,0 10805,-1242 13715,-3708 2910,-2484 4365,-6210 4365,-11161 0,-5021 -1473,-8640 -4436,-10858 -2963,-2218 -7718,-3336 -14283,-3336l-11480 0 0 29063zm99858 18967c0,6689 -2431,11906 -7275,15650 -4861,3743 -11444,5624 -19765,5624 -8996,0 -15934,-1171 -20777,-3495l0 -8517c3105,1313 6512,2360 10184,3123 3673,763 7310,1136 10912,1136 5891,0 10327,-1118 13307,-3354 2981,-2235 4472,-5341 4472,-9333 0,-2626 -533,-4790 -1580,-6476 -1064,-1668 -2838,-3229 -5305,-4649 -2484,-1419 -6245,-3034 -11302,-4826 -7079,-2537 -12136,-5535 -15152,-8995 -3035,-3460 -4561,-7985 -4561,-13574 0,-5855 2200,-10504 6601,-13981 4400,-3460 10220,-5199 17477,-5199 7541,0 14496,1384 20830,4170l-2750 7682c-6263,-2626 -12367,-3938 -18293,-3938 -4684,0 -8339,993 -10965,2998 -2644,2023 -3957,4808 -3957,8375 0,2644 479,4790 1455,6476 976,1686 2608,3229 4915,4631 2306,1401 5837,2945 10575,4649 7966,2838 13449,5890 16447,9137 2999,3265 4507,7488 4507,12686zm81512 -17867c0,12154 -3088,21717 -9227,28690 -6157,6956 -14709,10451 -25656,10451 -11196,0 -19837,-3424 -25923,-10273 -6068,-6849 -9119,-16501 -9119,-28974 0,-12385 3051,-21966 9155,-28779 6103,-6814 14762,-10221 25993,-10221 10912,0 19429,3478 25568,10398 6139,6937 9209,16501 9209,28708zm-60557 0c0,10291 2182,18098 6564,23403 4383,5323 10753,7985 19110,7985 8410,0 14780,-2644 19073,-7949 4294,-5306 6441,-13113 6441,-23439 0,-10238 -2129,-17991 -6405,-23261 -4294,-5287 -10628,-7931 -19003,-7931 -8428,0 -14833,2661 -19216,7966 -4382,5324 -6564,13059 -6564,23226zm120386 17867c0,6689 -2431,11906 -7274,15650 -4862,3743 -11445,5624 -19766,5624 -8996,0 -15933,-1171 -20777,-3495l0 -8517c3105,1313 6511,2360 10184,3123 3673,763 7310,1136 10912,1136 5891,0 10327,-1118 13308,-3354 2980,-2235 4471,-5341 4471,-9333 0,-2626 -532,-4790 -1580,-6476 -1064,-1668 -2838,-3229 -5305,-4649 -2484,-1419 -6245,-3034 -11302,-4826 -7079,-2537 -12136,-5535 -15153,-8995 -3034,-3460 -4559,-7985 -4559,-13574 0,-5855 2200,-10504 6600,-13981 4400,-3460 10220,-5199 17477,-5199 7541,0 14496,1384 20830,4170l-2750 7682c-6263,-2626 -12367,-3938 -18293,-3938 -4684,0 -8339,993 -10965,2998 -2644,2023 -3957,4808 -3957,8375 0,2644 479,4790 1455,6476 976,1686 2608,3229 4915,4631 2306,1401 5837,2945 10575,4649 7966,2838 13449,5890 16448,9137 2998,3265 4506,7488 4506,12686z"/>
    </g>
    <path class="fil10" d="M14788 134790l0 -18748 2487 0 0 7725 9688 0 0 -7725 2488 0 0 18748 -2488 0 0 -8824 -9688 0 0 8824 -2487 0zm18045 -9125c0,-3107 838,-5543 2509,-7301 1671,-1759 3827,-2636 6472,-2636 1732,0 3290,415 4682,1239 1388,825 2448,1977 3177,3457 729,1475 1096,3150 1096,5023 0,1898 -384,3600 -1152,5097 -768,1501 -1855,2636 -3260,3404 -1410,772 -2929,1156 -4556,1156 -1768,0 -3343,-428 -4735,-1279 -1388,-851 -2444,-2011 -3160,-3487 -715,-1470 -1073,-3028 -1073,-4673zm2566 43c0,2256 606,4033 1820,5329 1213,1296 2736,1946 4569,1946 1867,0 3399,-654 4608,-1964 1205,-1309 1807,-3168 1807,-5577 0,-1523 -258,-2854 -773,-3988 -515,-1135 -1269,-2016 -2260,-2641 -995,-624 -2108,-938 -3343,-938 -1754,0 -3264,602 -4530,1807 -1265,1204 -1898,3212 -1898,6026zm17748 3060l2331 -210c109,943 366,1715 772,2322 406,602 1034,1091 1885,1466 851,371 1811,559 2876,559 947,0 1781,-140 2505,-424 724,-283 1261,-672 1615,-1165 353,-493 532,-1030 532,-1606 0,-584 -170,-1095 -511,-1536 -340,-436 -903,-803 -1689,-1104 -501,-192 -1614,-497 -3338,-912 -1724,-415 -2928,-803 -3617,-1170 -895,-471 -1559,-1056 -1995,-1749 -441,-694 -659,-1476 -659,-2335 0,-951 271,-1837 807,-2658 537,-825 1318,-1449 2353,-1876 1030,-428 2177,-642 3439,-642 1387,0 2613,223 3674,672 1060,445 1877,1104 2448,1977 572,868 877,1855 921,2955l-2383 183c-126,-1183 -558,-2077 -1296,-2680 -738,-606 -1828,-908 -3269,-908 -1501,0 -2596,275 -3281,825 -685,550 -1030,1213 -1030,1990 0,672 244,1227 729,1663 480,432 1723,882 3740,1336 2016,458 3399,854 4150,1195 1086,502 1894,1135 2413,1907 519,768 777,1654 777,2658 0,999 -284,1933 -856,2815 -571,881 -1387,1566 -2457,2055 -1069,489 -2269,733 -3609,733 -1693,0 -3111,-249 -4254,-742 -1148,-493 -2043,-1235 -2693,-2230 -655,-990 -995,-2112 -1030,-3364zm18276 6022l0 -18748 7079 0c1244,0 2195,61 2854,179 921,153 1693,445 2317,873 624,432 1126,1034 1506,1807 379,772 567,1623 567,2553 0,1588 -506,2937 -1523,4036 -1013,1104 -2850,1654 -5503,1654l-4809 0 0 7646 -2488 0zm2488 -9845l4844 0c1606,0 2741,-297 3417,-895 672,-598 1008,-1436 1008,-2522 0,-781 -196,-1453 -593,-2012 -398,-558 -921,-930 -1567,-1109 -419,-108 -1191,-165 -2313,-165l-4796 0 0 6703zm15396 9845l0 -18748 2488 0 0 18748 -2488 0zm11621 0l0 -16548 -6179 0 0 -2200 14846 0 0 2200 -6179 0 0 16548 -2488 0zm7232 0l7191 -18748 2728 0 7633 18748 -2824 0 -2169 -5682 -7894 0 -2034 5682 -2631 0zm5393 -7698l6389 0 -1955 -5198c-589,-1579 -1034,-2884 -1344,-3914 -257,1222 -602,2422 -1034,3609l-2056 5503zm14022 7698l0 -18748 2487 0 0 16548 9217 0 0 2200 -11704 0zm21388 0l0 -18748 2487 0 0 18748 -2487 0zm6829 0l0 -18748 2549 0 9836 14715 0 -14715 2383 0 0 18748 -2548 0 -9837 -14715 0 14715 -2383 0zm19067 0l0 -18748 12647 0 0 2200 -10160 0 0 5839 8798 0 0 2199 -8798 0 0 8510 -2487 0zm15103 -9125c0,-3107 838,-5543 2510,-7301 1671,-1759 3827,-2636 6472,-2636 1732,0 3290,415 4682,1239 1388,825 2448,1977 3177,3457 729,1475 1095,3150 1095,5023 0,1898 -384,3600 -1152,5097 -768,1501 -1855,2636 -3259,3404 -1410,772 -2929,1156 -4557,1156 -1767,0 -3342,-428 -4734,-1279 -1388,-851 -2445,-2011 -3160,-3487 -716,-1470 -1074,-3028 -1074,-4673zm2566 43c0,2256 607,4033 1820,5329 1213,1296 2737,1946 4569,1946 1868,0 3400,-654 4609,-1964 1204,-1309 1806,-3168 1806,-5577 0,-1523 -257,-2854 -772,-3988 -515,-1135 -1270,-2016 -2261,-2641 -995,-624 -2107,-938 -3342,-938 -1755,0 -3265,602 -4530,1807 -1266,1204 -1899,3212 -1899,6026zm18613 9082l0 -18748 8309 0c1671,0 2941,170 3809,507 869,336 1563,929 2082,1780 519,851 777,1793 777,2824 0,1330 -432,2452 -1292,3364 -859,912 -2186,1488 -3984,1737 659,314 1156,628 1497,934 724,663 1409,1496 2051,2496l3242 5106 -3098 0 -2479 -3901c-720,-1131 -1318,-1991 -1785,-2588 -471,-598 -890,-1013 -1261,-1253 -366,-236 -746,-401 -1130,-497 -280,-57 -738,-87 -1379,-87l-2872 0 0 8326 -2487 0zm2487 -10473l5324 0c1135,0 2016,-118 2654,-354 637,-231 1121,-607 1449,-1126 331,-515 497,-1074 497,-1680 0,-886 -319,-1619 -960,-2191 -641,-572 -1654,-855 -3038,-855l-5926 0 0 6206zm16317 10473l0 -18748 3718 0 4434 13271c410,1235 707,2160 895,2776 214,-681 550,-1685 1003,-3007l4513 -13040 3321 0 0 18748 -2383 0 0 -15684 -5472 15684 -2235 0 -5411 -15972 0 15972 -2383 0zm19808 0l7192 -18748 2728 0 7632 18748 -2823 0 -2169 -5682 -7895 0 -2033 5682 -2632 0zm5394 -7698l6389 0 -1955 -5198c-589,-1579 -1035,-2884 -1344,-3914 -258,1222 -602,2422 -1035,3609l-2055 5503zm16950 7698l0 -16548 -6180 0 0 -2200 14847 0 0 2200 -6180 0 0 16548 -2487 0zm11647 0l0 -18748 2488 0 0 18748 -2488 0zm6097 -9125c0,-3107 838,-5543 2509,-7301 1672,-1759 3828,-2636 6472,-2636 1732,0 3290,415 4682,1239 1388,825 2449,1977 3177,3457 729,1475 1096,3150 1096,5023 0,1898 -384,3600 -1152,5097 -768,1501 -1855,2636 -3260,3404 -1410,772 -2928,1156 -4556,1156 -1768,0 -3343,-428 -4735,-1279 -1388,-851 -2444,-2011 -3160,-3487 -715,-1470 -1073,-3028 -1073,-4673zm2566 43c0,2256 606,4033 1820,5329 1213,1296 2736,1946 4569,1946 1867,0 3399,-654 4608,-1964 1204,-1309 1807,-3168 1807,-5577 0,-1523 -258,-2854 -773,-3988 -515,-1135 -1270,-2016 -2260,-2641 -995,-624 -2108,-938 -3343,-938 -1754,0 -3264,602 -4530,1807 -1265,1204 -1898,3212 -1898,6026zm18534 9082l0 -18748 2548 0 9837 14715 0 -14715 2382 0 0 18748 -2548 0 -9837 -14715 0 14715 -2382 0zm25398 -6022l2330 -210c110,943 367,1715 773,2322 406,602 1034,1091 1885,1466 851,371 1811,559 2876,559 947,0 1780,-140 2505,-424 724,-283 1261,-672 1614,-1165 354,-493 533,-1030 533,-1606 0,-584 -170,-1095 -511,-1536 -340,-436 -903,-803 -1688,-1104 -503,-192 -1615,-497 -3339,-912 -1724,-415 -2928,-803 -3618,-1170 -894,-471 -1558,-1056 -1994,-1749 -441,-694 -659,-1476 -659,-2335 0,-951 270,-1837 807,-2658 537,-825 1318,-1449 2353,-1876 1029,-428 2177,-642 3439,-642 1387,0 2613,223 3674,672 1060,445 1876,1104 2448,1977 572,868 877,1855 921,2955l-2383 183c-127,-1183 -558,-2077 -1296,-2680 -738,-606 -1828,-908 -3269,-908 -1501,0 -2596,275 -3281,825 -685,550 -1030,1213 -1030,1990 0,672 244,1227 729,1663 480,432 1723,882 3739,1336 2016,458 3400,854 4151,1195 1086,502 1893,1135 2413,1907 519,768 776,1654 776,2658 0,999 -283,1933 -854,2815 -572,881 -1388,1566 -2458,2055 -1069,489 -2269,733 -3609,733 -1693,0 -3111,-249 -4255,-742 -1147,-493 -2042,-1235 -2692,-2230 -655,-990 -995,-2112 -1030,-3364zm23561 6022l0 -7943 -7227 -10805 2985 0 3705 5673c690,1052 1332,2104 1916,3155 572,-981 1266,-2081 2073,-3303l3631 -5525 2893 0 -7488 10805 0 7943 -2488 0zm11368 -6022l2331 -210c109,943 366,1715 772,2322 406,602 1034,1091 1885,1466 852,371 1812,559 2876,559 947,0 1781,-140 2505,-424 725,-283 1261,-672 1615,-1165 353,-493 533,-1030 533,-1606 0,-584 -171,-1095 -511,-1536 -341,-436 -903,-803 -1689,-1104 -502,-192 -1615,-497 -3339,-912 -1724,-415 -2928,-803 -3617,-1170 -895,-471 -1558,-1056 -1995,-1749 -441,-694 -659,-1476 -659,-2335 0,-951 271,-1837 808,-2658 537,-825 1318,-1449 2352,-1876 1030,-428 2178,-642 3439,-642 1387,0 2614,223 3674,672 1061,445 1877,1104 2448,1977 572,868 878,1855 921,2955l-2383 183c-126,-1183 -558,-2077 -1296,-2680 -737,-606 -1828,-908 -3268,-908 -1501,0 -2597,275 -3282,825 -685,550 -1030,1213 -1030,1990 0,672 244,1227 729,1663 480,432 1724,882 3740,1336 2016,458 3399,854 4150,1195 1087,502 1894,1135 2413,1907 520,768 777,1654 777,2658 0,999 -284,1933 -855,2815 -572,881 -1388,1566 -2457,2055 -1069,489 -2270,733 -3609,733 -1693,0 -3112,-249 -4255,-742 -1148,-493 -2042,-1235 -2692,-2230 -655,-990 -996,-2112 -1031,-3364zm23042 6022l0 -16548 -6179 0 0 -2200 14846 0 0 2200 -6179 0 0 16548 -2488 0zm11281 0l0 -18748 13537 0 0 2200 -11049 0 0 5760 10342 0 0 2200 -10342 0 0 6388 11494 0 0 2200 -13982 0zm17360 0l0 -18748 3718 0 4434 13271c410,1235 707,2160 895,2776 213,-681 550,-1685 1003,-3007l4513 -13040 3321 0 0 18748 -2383 0 0 -15684 -5472 15684 -2235 0 -5411 -15972 0 15972 -2383 0zm36863 0l-2305 0 0 -14672c-554,533 -1283,1061 -2182,1589 -899,528 -1710,925 -2426,1187l0 -2226c1287,-602 2413,-1335 3378,-2199 964,-860 1649,-1693 2051,-2505l1484 0 0 18826zm7205 0l0 -2619 2618 0 0 2619 -2618 0zm5991 -9252c0,-2212 227,-4002 681,-5354 458,-1358 1135,-2400 2034,-3129 894,-729 2024,-1091 3386,-1091 1004,0 1886,201 2649,606 760,406 1388,991 1877,1755 488,759 873,1689 1152,2784 283,1095 423,2575 423,4429 0,2200 -227,3980 -676,5333 -450,1357 -1126,2401 -2025,3134 -895,733 -2030,1099 -3400,1099 -1802,0 -3221,-641 -4250,-1929 -1235,-1571 -1851,-4115 -1851,-7637zm2357 9c0,3085 358,5136 1078,6149 720,1017 1610,1523 2666,1523 1056,0 1946,-511 2666,-1528 720,-1021 1078,-3067 1078,-6144 0,-3085 -358,-5136 -1078,-6149 -715,-1017 -1614,-1523 -2692,-1523 -1056,0 -1903,450 -2535,1344 -790,1139 -1183,3251 -1183,6328z"/>
   </g>
  </g>
 </g>
</svg>
